
<svg xmlns="http://www.w3.org/2000/svg" viewBox="0 0 200 200">
  <rect x="0" y="0" width="200" height="200" rx="40" fill="#1A1A1A"/>
  <path d="M100 170 C 60 170, 30 140, 30 90 C 30 40, 100 20, 100 20 C 100 20, 170 40, 170 90 C 170 140, 140 170, 100 170 Z" fill="#FDF8E4" opacity="0.1" />
  <path d="M100 160 V 120" stroke="#FDF8E4" stroke-width="8" stroke-linecap="round" />
  <path d="M100 120 C 100 120, 50 100, 50 70 C 50 40, 80 30, 100 30 C 120 30, 150 40, 150 70 C 150 100, 100 120, 100 120" fill="none" stroke="#FDF8E4" stroke-width="6" stroke-linecap="round" stroke-linejoin="round" />
  <path d="M100 40 V 110" stroke="#FDF8E4" stroke-width="3" stroke-linecap="round" stroke-dasharray="6 4" opacity="0.8"/>
  <path d="M100 60 L 130 50" stroke="#FDF8E4" stroke-width="3" stroke-linecap="round" opacity="0.6"/>
  <path d="M100 80 L 70 70" stroke="#FDF8E4" stroke-width="3" stroke-linecap="round" opacity="0.6"/>
</svg>
